:version 1.10
:name ASF
:units
  mass 1
  length 1
  angle deg
:documentation
  ASF file generated by Kaydara
:root
  axis xyz
  order  tx ty tz rx ry rz
  position 0 0 0
  orientation 0 0 0
:bonedata
  begin
    id 1
    name lowerbackDummy
    direction 0 0 0
    length 0
    axis 0 -0 0 xyz
  end
  begin
    id 2
    name lowerback
    direction 0.0149039 0.998517 -0.0523597
    length 4.68464
    axis 0 -0 0 xyz
    dof rx ry rz
    limits( -inf , inf )
( -inf , inf )
( -inf , inf )

  end
  begin
    id 3
    name upperback
    direction -0.00882659 0.999418 -0.0329624
    length 4.68933
    axis 0 -0 0 xyz
    dof rx ry rz
    limits( -inf , inf )
( -inf , inf )
( -inf , inf )

  end
  begin
    id 4
    name thorax
    direction -0.0165585 0.999826 -0.0085833
    length 4.68976
    axis 0 -0 0 xyz
    dof rx ry rz
    limits( -inf , inf )
( -inf , inf )
( -inf , inf )

  end
  begin
    id 5
    name lowerneck
    direction -0.0130877 0.999911 0.00260353
    length 3.85007
    axis 0 -0 0 xyz
    dof rx ry rz
    limits( -inf , inf )
( -inf , inf )
( -inf , inf )

  end
  begin
    id 6
    name upperneck
    direction -0.0348454 0.928205 -0.370435
    length 3.70427
    axis 0 -0 0 xyz
    dof rx ry rz
    limits( -inf , inf )
( -inf , inf )
( -inf , inf )

  end
  begin
    id 7
    name head
    direction 0 0 0
    length 0
    axis 0 0 0 xyz
    dof rx ry rz
    limits( -inf , inf )
( -inf , inf )
( -inf , inf )

  end
  begin
    id 8
    name lclavicle
    direction 0.987582 0.144023 0.0627671
    length 7.76078
    axis 0 -0 0 xyz
    dof rx ry rz
    limits( -inf , inf )
( -inf , inf )
( -inf , inf )

  end
  begin
    id 9
    name lhumerus
    direction 1 -4.48958e-011 -1.45183e-018
    length 12.0426
    axis 180 -30 -90 xyz
    dof rx ry rz
    limits( -inf , inf )
( -inf , inf )
( -inf , inf )

  end
  begin
    id 10
    name lradius
    direction 1 -4.48999e-011 3.74805e-027
    length 5.43051
    axis 180 -30 -90 xyz
    dof rz ry rx
    limits( -inf , inf )
( -inf , inf )
( -inf , inf )

  end
  begin
    id 11
    name lwrist
    direction 1 -4.48988e-011 -4.48237e-017
    length 2.71524
    axis -90 90 0 xyz
    dof rz rx ry
    limits( -inf , inf )
( -inf , inf )
( -inf , inf )

  end
  begin
    id 12
    name lhand
    direction 1 -4.48882e-011 -4.48237e-017
    length 1.61667
    axis -90 90 0 xyz
    dof ry rx rz
    limits( -inf , inf )
( -inf , inf )
( -inf , inf )

  end
  begin
    id 13
    name lfingers
    direction 0 0 0
    length 0
    axis 0 0 0 xyz
    dof rz ry rx
    limits( -inf , inf )
( -inf , inf )
( -inf , inf )

  end
  begin
    id 14
    name lthumb
    direction 0 0 0
    length 0
    axis 0 0 0 xyz
    dof ry rx rz
    limits( -inf , inf )
( -inf , inf )
( -inf , inf )

  end
  begin
    id 15
    name rclavicle
    direction -0.980998 0.169556 0.0943023
    length 7.31716
    axis 0 -0 0 xyz
    dof rx ry rz
    limits( -inf , inf )
( -inf , inf )
( -inf , inf )

  end
  begin
    id 16
    name rhumerus
    direction -1 -1.83355e-005 2.45537e-005
    length 12.4217
    axis 180 30 90 xyz
    dof rx ry rz
    limits( -inf , inf )
( -inf , inf )
( -inf , inf )

  end
  begin
    id 17
    name rradius
    direction -1 -4.48967e-011 0
    length 5.51244
    axis 180 30 90 xyz
    dof rz ry rx
    limits( -inf , inf )
( -inf , inf )
( -inf , inf )

  end
  begin
    id 18
    name rwrist
    direction -1 -4.48964e-011 -4.48237e-017
    length 2.75622
    axis -90 -90 0 xyz
    dof rz rx ry
    limits( -inf , inf )
( -inf , inf )
( -inf , inf )

  end
  begin
    id 19
    name rhand
    direction -1 -4.48882e-011 -4.48237e-017
    length 1.81335
    axis -90 -90 0 xyz
    dof ry rx rz
    limits( -inf , inf )
( -inf , inf )
( -inf , inf )

  end
  begin
    id 20
    name rfingers
    direction 0 0 0
    length 0
    axis 0 0 0 xyz
    dof rz ry rx
    limits( -inf , inf )
( -inf , inf )
( -inf , inf )

  end
  begin
    id 21
    name rthumb
    direction 0 0 0
    length 0
    axis 0 0 0 xyz
    dof ry rx rz
    limits( -inf , inf )
( -inf , inf )
( -inf , inf )

  end
  begin
    id 22
    name rfemurDummy
    direction -0.640058 -0.688614 0.340788
    length 5.51442
    axis 0 -0 0 xyz
  end
  begin
    id 23
    name rfemur
    direction -0.34202 -0.939693 0
    length 14.6194
    axis 0 -0 -20 xyz
    dof rx ry rz
    limits( -inf , inf )
( -inf , inf )
( -inf , inf )

  end
  begin
    id 24
    name rtibia
    direction -0.34202 -0.939693 0
    length 17.7267
    axis 0 -0 -20 xyz
    dof rz ry rx
    limits( -inf , inf )
( -inf , inf )
( -inf , inf )

  end
  begin
    id 25
    name rfoot
    direction -0.0979793 -0.269196 0.958089
    length 4.88571
    axis -90 -7.62852e-016 -20 xyz
    dof ry rx rz
    limits( -inf , inf )
( -inf , inf )
( -inf , inf )

  end
  begin
    id 26
    name rtoes
    direction 0 0 0
    length 0
    axis 0 0 0 xyz
    dof rz ry rx
    limits( -inf , inf )
( -inf , inf )
( -inf , inf )

  end
  begin
    id 27
    name lfemurDummy
    direction 0.653368 -0.678499 0.335782
    length 5.59662
    axis 0 -0 0 xyz
  end
  begin
    id 28
    name lfemur
    direction 0.34202 -0.939693 0
    length 14.6166
    axis 0 -0 20 xyz
    dof rx ry rz
    limits( -inf , inf )
( -inf , inf )
( -inf , inf )

  end
  begin
    id 29
    name ltibia
    direction 0.34202 -0.939693 0
    length 17.6582
    axis 0 -0 20 xyz
    dof rz ry rx
    limits( -inf , inf )
( -inf , inf )
( -inf , inf )

  end
  begin
    id 30
    name lfoot
    direction 0.0811271 -0.222895 0.971461
    length 5.14087
    axis -90 7.62852e-016 20 xyz
    dof ry rx rz
    limits( -inf , inf )
( -inf , inf )
( -inf , inf )

  end
  begin
    id 31
    name ltoes
    direction 0 0 0
    length 0
    axis 0 0 0 xyz
    dof rz ry rx
    limits( -inf , inf )
( -inf , inf )
( -inf , inf )

  end
:hierarchy
  begin
    root lowerbackDummy rfemurDummy lfemurDummy
    lowerbackDummy lowerback
    lowerback upperback
    upperback thorax
    thorax lowerneck lclavicle rclavicle
    lowerneck upperneck
    upperneck head
    lclavicle lhumerus
    lhumerus lradius
    lradius lwrist
    lwrist lhand lthumb
    lhand lfingers
    rclavicle rhumerus
    rhumerus rradius
    rradius rwrist
    rwrist rhand rthumb
    rhand rfingers
    rfemurDummy rfemur
    rfemur rtibia
    rtibia rfoot
    rfoot rtoes
    lfemurDummy lfemur
    lfemur ltibia
    ltibia lfoot
    lfoot ltoes
  end

:SAMPLES-PER-SECOND 30
:FULLY-SPECIFIED
:DEGREES
30
root  0.4300022219 36.38555572 -46.23177896 9.657959938 -1.589580059 -4.962790012
lowerback  -0.8484860063 2.373749971 6.235219955
upperback  -1.121150017 3.142539978 -0.04728300124
thorax  -0.3435609937 1.534669995 -3.512559891
lowerneck  -22.35689926 -0.8039550185 -1.971050024
upperneck  33.68920135 0.3501619995 -1.792690039
head  15.66919994 -0.3721880019 -0.351812005
lclavicle  0 5.864150125e-015 -2.067359921e-014
lhumerus  -55.17139816 32.59349823 51.24290085
lradius  -3.117757845e-031 -1.657838972e-031 28.00139999
lwrist  -3.531125038e-031 -0 -4.470980167
lhand  -7.071338497e-031 -2.905210018 21.99209976
lfingers  90 7.125020027 -90
lthumb  92.20143067 5.219964826 67.09473774
rclavicle  0 5.864150125e-015 -2.067359921e-014
rhumerus  -28.62350082 1.136299968 -79.82659912
rradius  2.790445806e-031 2.163852176e-031 37.79180145
rwrist  1.412450015e-030 -0 -17.28590012
rhand  -3.534029813e-031 -2.323210001 11.46210003
rfingers  -90 -7.125020027 -90
rthumb  -78.16139343 -25.40391669 -63.95918333
rfemur  11.78509998 15.2112999 32.00109863
rtibia  -0 0 1.908329994e-014
rfoot  -0 -9.85422039 -23.27860069
rtoes  -3.746266808 19.66013285 -78.98675805
lfemur  -42.41880035 -11.52009964 -8.576060295
ltibia  -0 0 25.51199913
lfoot  -0 -20.5977993 22.99489975
ltoes  -6.929034695 -18.80763352 -110.6542312
31
root  0.4585622333 36.33466706 -45.87110985 9.845509529 -1.626739979 -4.731699944
lowerback  -1.457640052 3.077800035 6.325769901
upperback  -1.66952002 4.053959846 -0.826794982
thorax  -0.4100469947 1.97349 -4.331739902
lowerneck  -19.73060036 -1.351150036 -1.250370026
upperneck  33.10979843 -0.9548419714 -1.43859005
head  14.78289986 -0.7598279715 -0.5477949977
lclavicle  0 5.864150125e-015 -2.067359921e-014
lhumerus  -53.94010162 29.89100075 52.02299881
lradius  -3.11115355e-031 -1.670199875e-031 28.22879982
lwrist  -1.059337512e-030 -3.531125038e-031 -3.646610022
lhand  -7.063050782e-031 -0.8627439737 16.92020035
lfingers  90 7.125020027 -90
lthumb  90.14120568 0.3061016463 65.23582314
rclavicle  0 5.864150125e-015 -2.067359921e-014
rhumerus  -30.75639915 -1.139809966 -79.92620087
rradius  2.804881549e-031 2.145106882e-031 37.40790176
rwrist  0 -0 -16.41589928
rhand  -0 -1.534510016 11.5600996
rfingers  -90 -7.125020027 -90
rthumb  -77.71307585 -25.4215618 -63.09866851
rfemur  12.25689983 15.08889961 31.6996994
rtibia  -0 0 -2.226390018e-014
rfoot  -0 -9.733420372 -22.70919991
rtoes  -3.721593162 19.66463941 -79.06008738
lfemur  -42.33509827 -11.38939953 -8.935230255
ltibia  -0 0 25.88610077
lfoot  -0 -20.79940033 22.53750038
ltoes  -7.311815819 -18.66666638 -111.8458133
32
root  0.5051933405 36.29711181 -45.46755693 9.827960014 -2.088010073 -4.508230209
lowerback  -1.59010005 2.502490044 5.391930103
upperback  -0.8712300062 3.263410091 -0.1553640068
thorax  0.3036909997 1.622120023 -3.108860016
lowerneck  -23.20299911 -0.8190640211 -2.46262002
upperneck  33.81600189 0.4660159945 -1.523949981
head  15.92749977 -0.354734987 -0.1336539984
lclavicle  0 5.864150125e-015 -2.067359921e-014
lhumerus  -54.29710007 33.59719849 51.53530121
lradius  -3.112257644e-031 -1.668141598e-031 28.1909008
lwrist  -1.059337512e-030 -7.062250077e-031 -4.419149876
lhand  -3.531581351e-031 -0.9210619926 16.37339973
lfingers  90 7.125020027 -90
lthumb  89.9155654 -0.1835066417 65.29196569
rclavicle  0 5.864150125e-015 -2.067359921e-014
rhumerus  -28.87529945 1.340909958 -79.86229706
rradius  2.796590496e-031 2.15590483e-031 37.62879944
rwrist  1.412450015e-030 1.765562519e-031 -16.85330009
rhand  -0 -1.511729956 11.47780037
rfingers  -90 -7.125020027 -90
rthumb  -77.74278637 -25.34603481 -63.09216031
rfemur  11.3810997 15.3508997 31.33309937
rtibia  -0 0 2.882230043
rfoot  -0 -11.03509998 -22.5345993
rtoes  -2.600221901 19.83711723 -82.37760482
lfemur  -41.74459839 -10.75129986 -9.664070129
ltibia  -0 0 26.24020004
lfoot  -0 -20.66329956 22.55209923
ltoes  -7.388646462 -18.63730547 -112.0860446
33
root  0.5450555659 36.28422294 -45.07288895 9.770259857 -2.242320061 -4.049250126
lowerback  -2.041699886 2.825550079 4.929069996
upperback  -0.9508360028 3.679640055 -0.594595015
thorax  0.5139009953 1.834980011 -3.268209934
lowerneck  -22.30190086 -1.02481997 -1.992570043
upperneck  33.57450104 -0.07500009984 -1.52335
head  15.59920025 -0.5096619725 -0.3149690032
lclavicle  0 5.864150125e-015 -2.067359921e-014
lhumerus  -53.4048996 32.90670013 51.82720184
lradius  -3.115019284e-031 -1.662978923e-031 28.09589958
lwrist  -7.062250077e-031 -3.531125038e-031 -4.32115984
lhand  -3.531336022e-031 -0.6263179779 18.12369919
lfingers  90 7.125020027 -90
lthumb  90.63774742 1.367970286 65.00208704
rclavicle  0 5.864150125e-015 -2.067359921e-014
rhumerus  -29.73520088 0.3476009965 -79.99130249
rradius  2.817903179e-031 2.127972206e-031 37.05870056
rwrist  7.062250077e-031 1.765562519e-031 -16.46820068
rhand  -0 -1.573230028 10.69960022
rfingers  -90 -7.125020027 -90
rthumb  -78.16058821 -24.65671154 -63.32094929
rfemur  11.05700016 15.26599979 30.80179977
rtibia  -0 0 4.681680202
rfoot  -0 -11.13379955 -22.41860008
rtoes  -2.078319779 19.89612102 -83.91328985
lfemur  -41.23709869 -10.30529976 -10.67409992
ltibia  -0 0 26.63059998
lfoot  -0 -19.3689003 23.15780067
ltoes  -7.427459135 -18.62233607 -112.207542
34
root  0.5726777662 36.30911159 -44.67244486 9.715040207 -2.275559902 -3.642580032
lowerback  -1.883780003 3.040149927 4.586890221
upperback  -1.557780027 3.993799925 -1.051059961
thorax  -0.1604489982 1.965280056 -3.56566
lowerneck  -20.77000046 -1.216580033 -1.742640018
upperneck  33.55960083 -0.6075040102 -1.248070002
head  15.23620033 -0.653783977 -0.3329559863
lclavicle  0 5.864150125e-015 -2.067359921e-014
lhumerus  -53.28779984 31.28730011 52.03390121
lradius  -3.105594937e-031 -1.680513054e-031 28.41889954
lwrist  -7.062250077e-031 -3.531125038e-031 -3.479599953
lhand  -3.531125094e-031 -0.01013130043 19.19930077
lfingers  90 7.125020027 -90
lthumb  91.08066081 2.256163564 64.39801985
rclavicle  0 5.864150125e-015 -2.067359921e-014
rhumerus  -31.38050079 -0.7084490061 -80.17420197
rradius  2.837998508e-031 2.101096977e-031 36.5141983
rwrist  7.062250077e-031 -0 -15.72229958
rhand  -1.766150885e-031 -1.478970051 10.28610039
rfingers  -90 -7.125020027 -90
rthumb  -78.31846809 -24.27957654 -63.30587636
rfemur  11.07619953 15.06989956 30.35770035
rtibia  -0 0 5.858329773
rfoot  -0 -11.32429981 -22.10580063
rtoes  -2.232484068 19.88008215 -83.46011318
lfemur  -40.87490082 -10.31999969 -11.31480026
ltibia  -0 0 27.07670021
lfoot  -0 -18.67219925 23.61240005
ltoes  -7.325183531 -18.66158374 -111.8875848
